<svg xmlns="http://www.w3.org/2000/svg" width="250" height="250" viewBox="0 0 66.146 66.146"><g transform="translate(-35.47 -38.01)"><path d="M87.862 45.583a7.582 7.581 0 0 0-7.582 7.58 7.582 7.581 0 0 0 .97 3.703 4.37 4.37 0 0 0-1.208-.174 4.37 4.37 0 0 0-3.091 1.279l-6.322 6.322 6.18 6.18 6.323-6.322a4.37 4.37 0 0 0 1.098-4.339 7.582 7.581 0 0 0 3.632.933 7.582 7.581 0 0 0 7.582-7.581 7.582 7.581 0 0 0-7.582-7.581zm0 2.888a4.693 4.692 0 0 1 4.693 4.693 4.693 4.692 0 0 1-4.693 4.692 4.693 4.692 0 0 1-4.692-4.692 4.693 4.692 0 0 1 4.692-4.693zM60.802 74.12l-8.023 8.025a4.37 4.37 0 0 0 0 6.18 4.37 4.37 0 0 0 6.18 0l8.024-8.024-6.18-6.18z" style="fill:#000;fill-opacity:.993537;stroke-width:.0999998;stroke-linecap:round;paint-order:stroke fill markers;stop-color:#000"/><ellipse cx="44.488" cy="95.307" rx="4.693" ry="4.692" style="fill:#000;fill-opacity:.993537;stroke:none;stroke-width:.0999998;stroke-linecap:round;paint-order:stroke fill markers;stop-color:#000"/><path d="M94.115 91.11a6.948 6.948 0 0 0-2.034-4.915L53.647 47.764a6.948 6.948 0 0 0-9.827 0 6.948 6.948 0 0 0 0 9.825l38.434 38.433a6.948 6.948 0 0 0 9.827 0 6.948 6.948 0 0 0 2.034-4.912z" style="color:#000;fill:none;stroke:#000;stroke-width:3;stroke-linecap:round;-inkscape-stroke:none"/></g></svg>