<svg xmlns="http://www.w3.org/2000/svg" width="250" height="250" viewBox="0 0 66.146 66.146"><g transform="translate(-35.47 -38.01)"><path d="M84.177 40.64a13.368 13.361 0 0 0-9.454 3.915L42.683 76.58a13.368 13.361 0 0 0 0 18.9 13.368 13.361 0 0 0 18.902 0l32.04-32.032a13.368 13.361 0 0 0 0-18.893 13.368 13.361 0 0 0-9.448-3.915zm.398 6.14a7.16 7.156 0 0 1 7.16 7.156 7.16 7.156 0 0 1-7.16 7.156 7.16 7.156 0 0 1-7.158-7.156 7.16 7.156 0 0 1 7.158-7.157z" style="color:#000;fill:#000;stroke-width:1;stroke-linecap:round;-inkscape-stroke:none;fill-opacity:1"/><ellipse cx="86.654" cy="88.512" rx="10.886" ry="10.88" style="fill:#000;fill-opacity:.993537;stroke:none;stroke-width:.0999998;stroke-linecap:round;paint-order:stroke fill markers;stop-color:#000"/></g></svg>