<svg width="250" height="250" viewBox="0 0 66.146 66.146" xmlns="http://www.w3.org/2000/svg"><g transform="matrix(1.31769 0 0 1.31769 -56.773 -43.312)" style="stroke-width:.758904"><path style="color:#000;fill:#000;stroke-width:.758904;stroke-linecap:round;-inkscape-stroke:none" d="M86.412 36.756a4.233 4.233 0 0 0-2.994 1.24l-5.95 5.95a24.93 24.93 0 0 1 1.714 3.198l7.14-7.14a.53.53 0 0 1 .375-.154.53.53 0 0 1 .373.154.53.53 0 0 1 0 .748l-7.445 7.446c.54 1.376.965 2.815 1.263 4.303l8.518-8.519a4.233 4.233 0 0 0 0-5.986 4.233 4.233 0 0 0-2.994-1.24zm-12.01 10.257-27.439 27.44a4.233 4.233 0 0 0 0 5.986 4.233 4.233 0 0 0 5.986 0L77.118 56.27a21.618 21.618 0 0 0-.814-4.751L50.051 77.773a.53.53 0 0 1-.748 0 .53.53 0 0 1 0-.75L75.94 50.387a20.722 20.722 0 0 0-1.538-3.373z"/><path style="fill:none;fill-opacity:.993537;stroke:#000;stroke-width:.803173;stroke-linecap:round;stroke-dasharray:none;stroke-opacity:1;paint-order:stroke fill markers;stop-color:#000" d="M59.207 35.937a20.184 21.648 0 0 1 19.65 16.705 20.184 21.648 0 0 1-10.675 24.333"/><path style="color:#000;fill:#000;stroke-width:.758904;stroke-linecap:round;-inkscape-stroke:none" d="M48.42 38.594a.53.53 0 0 0-.373.154.53.53 0 0 0 0 .748l19.187 19.188.748-.749-19.187-19.187a.53.53 0 0 0-.375-.154zm20.685 20.464-.749.749 19.222 19.222a.53.53 0 0 0 .75 0 .53.53 0 0 0 0-.748z"/><path style="color:#000;fill:#000;stroke-width:.758904;stroke-linecap:round;-inkscape-stroke:none;paint-order:stroke fill markers" d="M59.158 34.26a2.242 2.242 0 0 0-2.245 2.239 2.242 2.242 0 0 0 2.245 2.24c6.18 0 11.666 3.215 15.009 8.18l3.202-3.2c-4.178-5.734-10.768-9.46-18.211-9.46z"/><circle style="fill:#000;fill-opacity:.993537;stroke:none;stroke-width:.0758903;stroke-linecap:round;paint-order:stroke fill markers;stop-color:#000" cx="48.98" cy="39.681" r="2.621"/><circle style="fill:#000;fill-opacity:.993537;stroke:none;stroke-width:.0758903;stroke-linecap:round;paint-order:stroke fill markers;stop-color:#000" cx="77.08" cy="67.619" r="2.621"/></g></svg>